# xmcd
#
# Track frame offsets:
#	150
#	37349
#	68113
#	112180
#	136484
#	181810
#
# Disc length: 2828 seconds
#
# Revision: 0
# Processed by: cddbd v1.5.1PL0 Copyright (c) Steve Scherf et al.
# Submitted via: audiograbber 1.83.01
#
DISCID=590b0a06
DTITLE=Allman Brothers Band - Verizon Wireless Arena, Manchester, NH, 7.9.05 - 
DTITLE=Disc One
DYEAR=2005
DGENRE=Blues
TTITLE0=You Don't Love Me
TTITLE1=I Walk on Guilded Splinters
TTITLE2=Hoochie Coochie Man
TTITLE3=Good Clean Fun
TTITLE4=Stormy Monday
TTITLE5=Can't Lose What You Never Had
EXTD=
EXTT0=
EXTT1=
EXTT2=
EXTT3=
EXTT4=
EXTT5=
PLAYORDER=
